<svg xmlns="http://www.w3.org/2000/svg" viewBox="0 0 39.24 32.03"><defs><style>.cls-1{fill:#231b21;}</style></defs><title>burger</title><g id="Layer_2" data-name="Layer 2"><g id="Layer_1-2" data-name="Layer 1"><path class="cls-1" d="M1.33,8.34a1.41,1.41,0,0,1-1-.5C0,7.5-.08,7.25.06,7.07A18.62,18.62,0,0,1,5.48,2.4,13.29,13.29,0,0,1,12.28.07a13.45,13.45,0,0,1,3.28.4c1.08.27,2.69.75,4.84,1.46a26.06,26.06,0,0,0,7.72,1.34,14.07,14.07,0,0,0,6.56-1.74q.59-.25,1.71-.9A4,4,0,0,1,38.2,0,1.06,1.06,0,0,1,39,.53c.26.36.33.63.2.8A15.72,15.72,0,0,1,36.29,4,26,26,0,0,1,31.65,6.9,10.93,10.93,0,0,1,27,8.13a14,14,0,0,1-2.83-.29c-1-.21-1.94-.44-2.89-.71L19.32,6.6c-2.08-.57-3.76-1-5-1.26a17.67,17.67,0,0,0-3.67-.4A14.81,14.81,0,0,0,5.93,6.13,21,21,0,0,0,1.52,8.27Z"/><rect class="cls-1" x="2.36" y="25.1" width="33.71" height="6.93"/><rect class="cls-1" x="5.61" y="12.57" width="27.21" height="7.13"/></g></g></svg>
