<svg xmlns="http://www.w3.org/2000/svg" viewBox="0 0 180.28 52.4"><defs><style>.cls-1{fill:#d8bf9c;}</style></defs><title>logo_main</title><g id="Layer_2" data-name="Layer 2"><g id="Layer_1-2" data-name="Layer 1"><path class="cls-1" d="M28.87,27.51v3.16H18.92V32.6h3.2q4.11,0,6.23,1.89a7.12,7.12,0,0,1,2.12,5.59,7.28,7.28,0,0,1-2.12,5.57,8.3,8.3,0,0,1-5.9,2H15.22V27.51ZM18.92,44.43h3.44a4.68,4.68,0,0,0,3.41-1.18A4.34,4.34,0,0,0,27,40a4,4,0,0,0-1.21-3.09,4.9,4.9,0,0,0-3.43-1.11H18.92Z"/><path class="cls-1" d="M45.36,27.51v3.16H35.42V32.6h3.19q4.11,0,6.23,1.89A7.12,7.12,0,0,1,47,40.08a7.28,7.28,0,0,1-2.12,5.57,8.3,8.3,0,0,1-5.9,2H31.72V27.51ZM35.42,44.43h3.43a4.72,4.72,0,0,0,3.42-1.18A4.38,4.38,0,0,0,43.49,40a4,4,0,0,0-1.21-3.09,4.9,4.9,0,0,0-3.43-1.11H35.42Z"/><path class="cls-1" d="M52.4,52.4H0V0H52.4ZM3.19,49.21h46v-46h-46Z"/><path class="cls-1" d="M62.52,27.48H76.17v3.17h-10v1.92h3.2c5.45,0,8.35,2.61,8.35,7.49s-3,7.56-8,7.56H62.52Zm3.7,8.26v8.68h3.44c2.9,0,4.65-1.69,4.65-4.47s-1.72-4.21-4.65-4.21Z"/><path class="cls-1" d="M85.65,32.42a5.81,5.81,0,0,1,3.88,1.34V32.57H93v15H89.53V46.43a4.92,4.92,0,0,1-3.88,1.34c-4.39,0-6.7-3.47-6.7-7.53S81.26,32.42,85.65,32.42Zm.62,12.27a3.07,3.07,0,0,0,3.26-3.38V38.82a2.93,2.93,0,0,0-3.26-3.11c-2.46,0-3.82,2.22-3.82,4.53S83.81,44.69,86.27,44.69Z"/><path class="cls-1" d="M95.33,27.48h3.43v6.13a5.86,5.86,0,0,1,3.88-1.19c4.39,0,6.7,3.76,6.7,7.82s-2.31,7.53-6.7,7.53a4.92,4.92,0,0,1-3.88-1.34v1.19H95.33Zm3.43,13.83A3.07,3.07,0,0,0,102,44.69c2.46,0,3.82-2.08,3.82-4.45s-1.36-4.53-3.82-4.53a2.93,2.93,0,0,0-3.26,3.11Z"/><path class="cls-1" d="M110.52,41.58v-9H114v8.35c0,2.25,1.19,3.65,3,3.65s3.23-1.54,3.23-3.62V32.54h3.41V47.62h-3.41V46.43a5.19,5.19,0,0,1-3.64,1.39C112.86,47.82,110.52,45.43,110.52,41.58Z"/><path class="cls-1" d="M130.59,32.42c3.79,0,5.81,2.08,5.9,4.86h-3.26a2.37,2.37,0,0,0-2.61-1.75c-1.66,0-2,.89-2,1.4,0,2.6,8.38.23,8.38,6.19,0,3.05-2.19,4.5-6.07,4.5h-5.51V44.51h5.63c1.72,0,2.49-.21,2.49-1.07,0-2.84-8.45-.21-8.45-6.22C125.11,34.64,126.68,32.42,130.59,32.42Z"/><path class="cls-1" d="M138.44,47.62V27.48h3.43v6.16a5.18,5.18,0,0,1,3.56-1.22c3.67,0,5.83,2.26,5.83,6v9.15h-3.43V39.15c0-2.17-1.19-3.44-3.2-3.44a2.54,2.54,0,0,0-2.76,2.61v9.3Z"/><path class="cls-1" d="M153.33,47.62V27.48h3.44v10.6h1c2.84,0,4.7-2.4,4.85-5.51h3.08A8.49,8.49,0,0,1,161.92,40l4.56,7.58h-3.94l-3.64-6.55a7.92,7.92,0,0,1-1.21.09h-.92v6.46Z"/><path class="cls-1" d="M173,32.42a5.77,5.77,0,0,1,3.88,1.34V32.57h3.44v15h-3.44V46.43A4.89,4.89,0,0,1,173,47.77c-4.38,0-6.69-3.47-6.69-7.53S168.58,32.42,173,32.42Zm.63,12.27a3.07,3.07,0,0,0,3.25-3.38V38.82a2.92,2.92,0,0,0-3.25-3.11c-2.46,0-3.82,2.22-3.82,4.53S171.13,44.69,173.59,44.69Z"/><path class="cls-1" d="M73.33,14.22c-.15,0-.18.18,0,.24a4.64,4.64,0,0,1,3.29,4.2,5.26,5.26,0,0,1-2.84,4.65A12.05,12.05,0,0,1,68,24.58c-1.07,0-2.16-.17-3.41-.17s-2.39.17-3.25.17c-.66,0-.74-.17-.74-.29s.26-.27.65-.33c1.89-.29,2.43-.62,3.2-3.58.53-2,2.45-8,3.58-12.71C68.36,6.28,67.7,6,65.84,6c-.21,0-.65-.09-.65-.3s.29-.3.65-.3,1.12,0,2-.06c1.13-.09,2.49-.17,3.88-.17a7.22,7.22,0,0,1,3.94.94,3.9,3.9,0,0,1,1.69,3.14C77.39,12,75.58,13.48,73.33,14.22Zm-1,1.48a5.28,5.28,0,0,0-2.9-.92,1.81,1.81,0,0,0-.83.15,1.29,1.29,0,0,0-.56.65,40.43,40.43,0,0,0-1.72,6.25,1.51,1.51,0,0,0,.3,1.1,4.3,4.3,0,0,0,2.54.94,5,5,0,0,0,5-5.24A4.62,4.62,0,0,0,72.35,15.7Zm-.59-9.89a1.73,1.73,0,0,0-1.15.91,70.19,70.19,0,0,0-2.14,7c0,.15.06.45.57.45a7.82,7.82,0,0,0,3.79-.92A4.74,4.74,0,0,0,75,9.09,3.44,3.44,0,0,0,71.76,5.81Z"/><path class="cls-1" d="M83.66,13.06a3.58,3.58,0,0,1-.32,1.31c-.86,2.28-3.08,6.9-3.88,8.7-.12.3,0,.36.12.36a9,9,0,0,0,2.75-2.13c.12-.12.27-.21.27.06a1.44,1.44,0,0,1-.3.74c-1.3,1.74-2.87,2.72-3.91,2.72a1.29,1.29,0,0,1-.77-.95,6.72,6.72,0,0,1,.74-2.48c.65-1.46,2.13-4.48,3.14-6.85.21-.38-.09-.47-.27-.41a8.55,8.55,0,0,0-2,1.54c-.38.3-.62.33-.59.18a1.36,1.36,0,0,1,.26-.63c1.46-1.86,3.17-2.9,4.15-2.9C83.49,12.32,83.63,12.8,83.66,13.06ZM84.94,8a1.39,1.39,0,0,1-1.19,1.33,1,1,0,0,1-.92-1.09A1.29,1.29,0,0,1,84,6.9C84.85,6.9,84.94,7.64,84.94,8Z"/><path class="cls-1" d="M91.45,13a1,1,0,0,1,.24.66c0,.35-.56,1-.92,1s-.41-.15-.62-.38a2,2,0,0,0-1.54-.8A1.42,1.42,0,0,0,87.36,15a9.27,9.27,0,0,0,1.13,3,7.94,7.94,0,0,1,1,3.08,3.74,3.74,0,0,1-1.9,2.78,5.06,5.06,0,0,1-2.69,1,1.93,1.93,0,0,1-2-1.63,1.6,1.6,0,0,1,.42-1.09c.29-.3.44-.27.59-.09.59.71,1.36,1.66,2.37,1.66a1.45,1.45,0,0,0,1.57-1.57,7.56,7.56,0,0,0-1-3.05,7,7,0,0,1-.92-2.85,3.67,3.67,0,0,1,1.51-2.63A4.9,4.9,0,0,1,90,12.32,1.8,1.8,0,0,1,91.45,13Z"/><path class="cls-1" d="M97.67,10.19c-.21.59-.48,1.63-.65,2.16-.06.15-.06.36,0,.36.44,0,1.92-.06,2.34-.06s.5.18.5.29-.3.36-1.07.45c-1.09.12-1.77.12-2,.15s-.24.23-.27.29c-.53,1.45-1.74,5.33-2.6,8.09-.09.26,0,.5.2.5a6.33,6.33,0,0,0,2.61-1.86c.15-.18.33-.24.33.06a1.54,1.54,0,0,1-.36.91c-1.15,1.57-3.49,3.29-4.59,3.29a.87.87,0,0,1-.71-.74,5,5,0,0,1,.32-1.42c.39-1.16,1.9-5.72,2.91-8.77a.2.2,0,0,0-.15-.26c-.45,0-1.07,0-1.39-.06a.61.61,0,0,1-.42-.3c0-.12.24-.33.54-.38a14.65,14.65,0,0,1,1.48-.12c.14,0,.29-.06.35-.21a25.34,25.34,0,0,1,1.13-2.4,2,2,0,0,1,1.42-.83C97.76,9.33,97.88,9.63,97.67,10.19Z"/><path class="cls-1" d="M108.71,13.57a2.18,2.18,0,0,1-1.45,2.19c-.15,0-.35-.09-.35-.71s-.06-1.33-.51-1.33c-.65,0-1.24.71-3.28,4.59-1.16,2.1-2.23,4.65-2.88,6-.18.38-.41.53-.59.53a1.12,1.12,0,0,1-.8-.33.94.94,0,0,1-.09-.71c.21-.56,1.57-4.38,2.82-8.26.32-1,.11-1.21-.15-1.21a2.15,2.15,0,0,0-1.54.86c-.45.44-.57.62-.74.62s-.15-.06-.15-.21c0-.65,1.36-3.08,3.4-3.08a1.09,1.09,0,0,1,1.13,1.07c0,.5-.71,2.22-1.15,3.73,0,.15.08.35.23.12,1-1.51,1.48-2.28,2.13-3.14,1-1.28,2.08-2.08,2.88-2.08S108.71,12.94,108.71,13.57Z"/><path class="cls-1" d="M117.71,15.91A10.8,10.8,0,0,1,114,23.72a5.47,5.47,0,0,1-3,1.1c-1.15,0-2.55-1-2.55-3.4A11.22,11.22,0,0,1,110.64,15a6,6,0,0,1,4.41-2.67C116.77,12.32,117.71,14.37,117.71,15.91Zm-5.47-.3a15.36,15.36,0,0,0-2.11,6.75c0,1.22.39,1.84,1,1.84s1.39-.62,2.31-1.93a18.46,18.46,0,0,0,2.7-7.81c0-1-.42-1.49-1-1.49S113.48,13.63,112.24,15.61Z"/></g></g></svg>
