<svg xmlns="http://www.w3.org/2000/svg" viewBox="0 0 52.4 52.4"><defs><style>.cls-1{fill:#d8bf9c;}</style></defs><title>logo_mark</title><g id="Layer_2" data-name="Layer 2"><g id="Layer_1-2" data-name="Layer 1"><path class="cls-1" d="M28.87,27.51v3.16H18.92V32.6h3.2q4.11,0,6.23,1.89a7.12,7.12,0,0,1,2.12,5.59,7.28,7.28,0,0,1-2.12,5.57,8.3,8.3,0,0,1-5.9,2H15.22V27.51ZM18.92,44.43h3.44a4.68,4.68,0,0,0,3.41-1.18A4.34,4.34,0,0,0,27,40a4,4,0,0,0-1.21-3.09,4.9,4.9,0,0,0-3.43-1.11H18.92Z"/><path class="cls-1" d="M45.36,27.51v3.16H35.42V32.6h3.19q4.11,0,6.23,1.89A7.12,7.12,0,0,1,47,40.08a7.28,7.28,0,0,1-2.12,5.57,8.3,8.3,0,0,1-5.9,2H31.72V27.51ZM35.42,44.43h3.43a4.72,4.72,0,0,0,3.42-1.18A4.38,4.38,0,0,0,43.49,40a4,4,0,0,0-1.21-3.09,4.9,4.9,0,0,0-3.43-1.11H35.42Z"/><path class="cls-1" d="M52.4,52.4H0V0H52.4ZM3.19,49.21h46v-46h-46Z"/></g></g></svg>
