<svg xmlns="http://www.w3.org/2000/svg" viewBox="0 0 183.8 20.53"><defs><style>.cls-1{fill:#d8bf9c;}</style></defs><title>logo_text</title><g id="Layer_2" data-name="Layer 2"><g id="Layer_1-2" data-name="Layer 1"><path class="cls-1" d="M66,0H79.7V3.17h-10V5.09H73c5.44,0,8.35,2.61,8.35,7.5,0,4.74-3,7.55-8,7.55H66Zm3.71,8.26v8.68h3.43c2.9,0,4.65-1.69,4.65-4.47s-1.72-4.21-4.65-4.21Z"/><path class="cls-1" d="M89.17,5a5.82,5.82,0,0,1,3.88,1.33V5.09h3.44V20.14H93.05V19a5,5,0,0,1-3.88,1.33c-4.38,0-6.69-3.47-6.69-7.53S84.79,5,89.17,5Zm.62,12.26a3.07,3.07,0,0,0,3.26-3.38V11.34a2.93,2.93,0,0,0-3.26-3.11c-2.46,0-3.82,2.23-3.82,4.53S87.33,17.21,89.79,17.21Z"/><path class="cls-1" d="M98.85,0h3.44V6.13A5.84,5.84,0,0,1,106.17,5c4.38,0,6.69,3.76,6.69,7.81s-2.31,7.53-6.69,7.53A4.94,4.94,0,0,1,102.29,19v1.18H98.85Zm3.44,13.83a3.07,3.07,0,0,0,3.25,3.38c2.46,0,3.83-2.08,3.83-4.45S108,8.23,105.54,8.23a2.92,2.92,0,0,0-3.25,3.11Z"/><path class="cls-1" d="M114,14.1v-9h3.44v8.36c0,2.25,1.18,3.64,3,3.64s3.22-1.54,3.22-3.61V5.06h3.41V20.14h-3.41V19a5.21,5.21,0,0,1-3.64,1.39C116.38,20.35,114,18,114,14.1Z"/><path class="cls-1" d="M134.12,5C137.91,5,139.92,7,140,9.8h-3.26c-.2-1.12-1.24-1.74-2.6-1.74-1.66,0-2,.88-2,1.39,0,2.6,8.38.23,8.38,6.19,0,3.05-2.19,4.5-6.07,4.5H129V17h5.63c1.72,0,2.49-.21,2.49-1.07,0-2.84-8.44-.2-8.44-6.22C128.64,7.17,130.21,5,134.12,5Z"/><path class="cls-1" d="M142,20.14V0h3.44V6.16A5.15,5.15,0,0,1,149,5c3.68,0,5.84,2.25,5.84,6v9.15h-3.44V11.67c0-2.16-1.18-3.44-3.2-3.44a2.53,2.53,0,0,0-2.75,2.61v9.3Z"/><path class="cls-1" d="M156.86,20.14V0h3.43V10.6h1c2.84,0,4.71-2.4,4.86-5.51h3.08a8.48,8.48,0,0,1-3.76,7.47L170,20.14h-3.94l-3.65-6.55a7.82,7.82,0,0,1-1.21.09h-.92v6.46Z"/><path class="cls-1" d="M176.49,5a5.82,5.82,0,0,1,3.88,1.33V5.09h3.43V20.14h-3.43V19a5,5,0,0,1-3.88,1.33c-4.38,0-6.69-3.47-6.69-7.53S172.11,5,176.49,5Zm.62,12.26a3.07,3.07,0,0,0,3.26-3.38V11.34a2.93,2.93,0,0,0-3.26-3.11c-2.46,0-3.82,2.23-3.82,4.53S174.65,17.21,177.11,17.21Z"/><path class="cls-1" d="M12.77,9.9c-.15,0-.18.18,0,.24a4.65,4.65,0,0,1,3.28,4.2A5.23,5.23,0,0,1,13.21,19,12,12,0,0,1,7.4,20.27c-1.06,0-2.16-.18-3.4-.18s-2.4.18-3.26.18c-.65,0-.74-.18-.74-.3s.27-.26.65-.32c1.9-.3,2.43-.63,3.2-3.59.53-2,2.46-8,3.58-12.7C7.79,2,7.14,1.73,5.27,1.64c-.21,0-.65-.09-.65-.3s.3-.29.65-.29S6.4,1.05,7.32,1C8.44.9,9.8.81,11.2.81a7.17,7.17,0,0,1,3.93,1A3.89,3.89,0,0,1,16.82,4.9C16.82,7.71,15,9.16,12.77,9.9Zm-1,1.48a5.3,5.3,0,0,0-2.9-.92,1.76,1.76,0,0,0-.83.15,1.29,1.29,0,0,0-.57.65,41.09,41.09,0,0,0-1.71,6.25,1.5,1.5,0,0,0,.29,1.1,4.33,4.33,0,0,0,2.55.95,5,5,0,0,0,5-5.25A4.64,4.64,0,0,0,11.79,11.38ZM11.2,1.49A1.75,1.75,0,0,0,10,2.41a69.52,69.52,0,0,0-2.13,7c0,.15.06.44.56.44A7.79,7.79,0,0,0,12.26,9a4.72,4.72,0,0,0,2.19-4.17A3.45,3.45,0,0,0,11.2,1.49Z"/><path class="cls-1" d="M23.1,8.75a3.4,3.4,0,0,1-.33,1.3c-.86,2.28-3.08,6.9-3.88,8.71-.12.29,0,.35.12.35A8.69,8.69,0,0,0,21.76,17c.12-.12.27-.21.27.06a1.45,1.45,0,0,1-.29.74c-1.31,1.75-2.88,2.72-3.91,2.72a1.27,1.27,0,0,1-.77-.94,6.5,6.5,0,0,1,.74-2.49c.65-1.45,2.13-4.47,3.14-6.84.2-.39-.09-.48-.27-.42a8.78,8.78,0,0,0-2,1.54c-.38.3-.62.33-.59.18a1.24,1.24,0,0,1,.27-.62C19.81,9,21.53,8,22.51,8,22.92,8,23.07,8.48,23.1,8.75Zm1.27-5.07A1.39,1.39,0,0,1,23.19,5a1,1,0,0,1-.92-1.09,1.28,1.28,0,0,1,1.18-1.33C24.28,2.59,24.37,3.33,24.37,3.68Z"/><path class="cls-1" d="M30.89,8.69a1,1,0,0,1,.23.65c0,.35-.56,1-.92,1s-.41-.15-.62-.39A2,2,0,0,0,28,9.19a1.41,1.41,0,0,0-1.24,1.48,9.2,9.2,0,0,0,1.12,3,7.94,7.94,0,0,1,1,3.08A3.75,3.75,0,0,1,27,19.5a5.17,5.17,0,0,1-2.7,1,1.92,1.92,0,0,1-2-1.62,1.61,1.61,0,0,1,.41-1.1c.3-.3.45-.27.59-.09.6.71,1.37,1.66,2.37,1.66a1.45,1.45,0,0,0,1.57-1.57,7.57,7.57,0,0,0-1-3.05,6.81,6.81,0,0,1-.92-2.84,3.66,3.66,0,0,1,1.51-2.64A4.86,4.86,0,0,1,29.46,8,1.79,1.79,0,0,1,30.89,8.69Z"/><path class="cls-1" d="M37.1,5.87c-.2.6-.47,1.63-.65,2.17-.06.14-.06.35,0,.35.44,0,1.93-.06,2.34-.06s.5.18.5.3S39,9,38.26,9.07c-1.1.12-1.78.12-2,.15s-.23.24-.26.3c-.54,1.45-1.75,5.33-2.61,8.08-.09.27,0,.51.21.51a6.46,6.46,0,0,0,2.6-1.87c.15-.18.33-.24.33.06a1.61,1.61,0,0,1-.35.92c-1.16,1.57-3.5,3.28-4.6,3.28a.88.88,0,0,1-.71-.74,4.85,4.85,0,0,1,.33-1.42l2.9-8.76a.21.21,0,0,0-.15-.27c-.44,0-1.06,0-1.39-.06A.58.58,0,0,1,32.1,9c0-.12.23-.32.53-.38.15,0,.77-.09,1.48-.12.15,0,.3-.06.36-.21.23-.53.83-1.95,1.12-2.4A2,2,0,0,1,37,5C37.19,5,37.31,5.31,37.1,5.87Z"/><path class="cls-1" d="M48.15,9.25a2.19,2.19,0,0,1-1.45,2.19c-.15,0-.36-.09-.36-.71s-.06-1.33-.5-1.33c-.65,0-1.25.71-3.29,4.59-1.16,2.1-2.22,4.65-2.87,6-.18.39-.42.53-.6.53a1.13,1.13,0,0,1-.79-.32,1,1,0,0,1-.09-.71c.2-.57,1.57-4.39,2.81-8.27.33-.94.12-1.21-.15-1.21a2.21,2.21,0,0,0-1.54.86c-.44.44-.56.62-.74.62s-.15-.06-.15-.21c0-.65,1.36-3.08,3.41-3.08A1.1,1.1,0,0,1,43,9.28c0,.5-.71,2.22-1.15,3.73,0,.15.09.36.24.12,1-1.51,1.48-2.28,2.13-3.14,1-1.27,2.07-2.07,2.87-2.07S48.15,8.63,48.15,9.25Z"/><path class="cls-1" d="M57.15,11.59a10.88,10.88,0,0,1-3.73,7.82,5.47,5.47,0,0,1-3.05,1.09c-1.16,0-2.55-1-2.55-3.4a11.3,11.3,0,0,1,2.25-6.43A6,6,0,0,1,54.48,8C56.2,8,57.15,10.05,57.15,11.59Zm-5.48-.3a15.34,15.34,0,0,0-2.1,6.76c0,1.21.38,1.83,1,1.83s1.4-.62,2.31-1.92a18.36,18.36,0,0,0,2.7-7.82c0-1-.42-1.48-.95-1.48S52.91,9.31,51.67,11.29Z"/></g></g></svg>
