<?xml version="1.0" encoding="utf-8"?>
<!-- Generator: Adobe Illustrator 24.0.2, SVG Export Plug-In . SVG Version: 6.00 Build 0)  -->
<svg version="1.1" id="Layer_1" xmlns="http://www.w3.org/2000/svg" xmlns:xlink="http://www.w3.org/1999/xlink" x="0px" y="0px"
	 viewBox="0 0 400 300" style="enable-background:new 0 0 400 300;" xml:space="preserve">
<style type="text/css">
	.st0{fill:#EE9E9F;}
	.st1{fill:#FFFFFF;}
	.st2{fill:#EF9EA0;}
</style>
<title>logo</title>
<path class="st0" d="M213.7,256.2h-25.5c4.4,2.9,9,5.5,13.8,7.8c-18.9,10.6-44.1,16.3-74.3,16.3c-55.8,0-97.2-19.7-121.9-49.9
	l33.8-30.2c5.5,5.9,11.5,11.4,18,16.2v39.3h157C214.3,255.7,214,256,213.7,256.2z"/>
<path class="st1" d="M182,251.1H62v-31.8c18.3,12.4,40,19,66.8,19c12.9,0,24.4-1.6,33.7-4.8C168.3,240.1,174.8,246,182,251.1z"/>
<path class="st1" d="M242.2,196c0.1,11.6-2.3,23.1-7.2,33.7c-15.9-6.4-29.4-16.4-41.5-29.6l-5.6,5c0.1-1.4,0.2-2.7,0.2-4.1
	c0-22-17.6-28.1-39.8-31.1l-41.2-6.6c-15.3-2.3-31.3-5.7-45.2-11.9V38.5h165.1c4,3.1,7.6,6.6,11,10.3l-30.7,32.3
	c-7.7-8.9-17.2-16-27.8-21c-12.9-6.2-29.3-10.3-50.3-10.3c-35.9,0-54.9,12.1-54.9,34.7c0,22.2,18.1,28.3,39.8,31.3l41.2,6.6
	c10.4,1.4,20.7,3.5,30.8,6.4c17.9,5.3,34.1,13.7,44.4,27.9C237.9,166.7,242.2,179.5,242.2,196z"/>
<path class="st0" d="M131.3,8.1c-66.5,0-110.9,28.1-110.9,81c0,31.5,15.8,49.4,37.2,60.1V34.1h163.9C199.1,17.5,169.4,8.1,131.3,8.1
	z"/>
<path class="st2" d="M213.7,256.2c-3.7,2.9-7.6,5.5-11.7,7.8c-4.7-2.3-9.4-4.9-13.8-7.8L213.7,256.2z"/>
<path class="st1" d="M396.2,196.6c0,52.4-43.4,84.2-114.5,84.2c-31.1,0-57.9-6.2-79.7-16.9c4.1-2.3,8-4.9,11.7-7.8h140.7V134.8
	C378.2,144.9,396.2,163,396.2,196.6z"/>
<path class="st1" d="M235.1,229.7c-3.8,8-9,15.3-15.4,21.4H182c-7.1-5.1-13.7-11-19.5-17.6c14.6-5.1,24-14.4,25.5-28.4l5.6-5
	C205.7,213.3,219.2,223.2,235.1,229.7z"/>
<path class="st0" d="M228.4,84.6c0,22.2,18.1,28.3,39.8,31.3l41.2,6.6c13.7,2,27.7,5,40.5,10v118.7H219.7
	c6.4-6.1,11.6-13.4,15.4-21.4c13.9,5.6,29.6,8.6,47.7,8.6c35.2,0,59.4-11.6,59.4-37.3c0-22-17.6-28.1-39.8-31.1l-41.2-6.6
	c-10.3-1.4-20.5-3.6-30.4-6.5c-17.7-5.3-34-13.8-44.4-27.9c-7.4-10-11.9-23-11.9-39.7c-0.1-9.9,1.7-19.8,5.3-29
	c3.2-8.1,8-15.4,14.1-21.7H350v31.6c-14.4-11.2-35.5-20.3-66.6-20.3C247.4,49.9,228.4,62,228.4,84.6z"/>
<path class="st1" d="M285.3,8.8c-37.3,0-67.7,8.9-87.1,26h156.2v40c2.4,2.2,4.8,4.6,6.9,7.1l30.8-32.3
	C368.4,23.8,333.6,8.8,285.3,8.8z"/>
</svg>
