<?xml version="1.0" encoding="utf-8"?>
<!-- Generator: Adobe Illustrator 24.0.2, SVG Export Plug-In . SVG Version: 6.00 Build 0)  -->
<svg version="1.1" id="Layer_1" xmlns="http://www.w3.org/2000/svg" xmlns:xlink="http://www.w3.org/1999/xlink" x="0px" y="0px"
	 viewBox="0 0 400 300" style="enable-background:new 0 0 400 300;" xml:space="preserve">
<style type="text/css">
	.st0{fill:#F4C3CB;}
	.st1{fill:#F4F4F4;}
</style>
<title>logo</title>
<path class="st0" d="M213.7,256.2h-25.5c4.4,2.9,9,5.5,13.8,7.8c-18.9,10.6-44.1,16.3-74.3,16.3c-55.8,0-97.2-19.7-121.9-49.9
	l33.8-30.2c5.5,5.9,11.5,11.4,18,16.2v39.3h157C214.3,255.7,214,256,213.7,256.2z"/>
<path class="st0" d="M131.3,8.1c-66.5,0-110.9,28.1-110.9,81c0,31.5,15.8,49.4,37.2,60.1V34.1h163.9C199.1,17.5,169.4,8.1,131.3,8.1
	z"/>
<path class="st0" d="M213.7,256.2c-3.7,2.9-7.6,5.5-11.7,7.8c-4.7-2.3-9.4-4.9-13.8-7.8H213.7z"/>
<path class="st0" d="M396.2,196.6c0,52.4-43.4,84.2-114.5,84.2c-31.1,0-57.9-6.2-79.7-16.9c4.1-2.3,8-4.9,11.7-7.8h140.7V134.8
	C378.2,144.9,396.2,163,396.2,196.6z"/>
<g>
	<path class="st1" d="M164.7,229c-8.8,3-19.7,4.6-32,4.6c-25.4,0-46-6.3-63.4-18v30.2h113.8C176.4,240.8,170.2,235.2,164.7,229z"/>
	<path class="st1" d="M279.4,54.8c29.5,0,49.5,8.6,63.2,19.3V44H226l-0.1-0.1H69.3v107.1c13.2,5.9,28.4,9.1,42.9,11.3l39.1,6.3
		c21.1,2.8,37.8,8.6,37.8,29.5c0,1.3-0.1,2.6-0.2,3.9l5.3-4.7l0,0l-5.2,4.7c-1.4,13.3-10.3,22.1-24.2,26.9
		c5.5,6.3,11.8,11.9,18.5,16.7H219c6.1-5.8,11-12.7,14.6-20.3h-0.1c4.6-10.1,6.9-21,6.8-32c0-15.6-4.1-27.7-11-37.2
		c0.1,0,0.1,0,0.2,0.1c9.4,2.8,19.1,4.8,28.8,6.2l39.1,6.3c21.1,2.8,37.8,8.6,37.8,29.5c0,24.4-23,35.4-56.4,35.4
		c-17.2,0-32.1-2.8-45.3-8.2c-3.6,7.6-8.5,14.5-14.6,20.3h123.5V133.1c-12.1-4.7-25.4-7.6-38.4-9.5l-39.1-6.3
		c-20.6-2.8-37.8-8.6-37.8-29.7C227.2,66.2,245.3,54.8,279.4,54.8z M157.9,123.6l-39.1-6.3C98.2,114.4,81,108.7,81,87.6
		c0-21.4,18-32.9,52.1-32.9c19.9,0,35.5,3.9,47.7,9.8c0.1,0.1,0.2,0.1,0.3,0.2l0,0c-3.4,8.7-5.1,18.1-5,27.5
		c0,15.7,4.3,28.1,11.2,37.6c-0.1,0-0.1,0-0.2-0.1C177.5,126.9,167.8,124.9,157.9,123.6z"/>
</g>
<path class="st0" d="M285.3,8.8c-37.3,0-67.7,8.9-87.1,26h156.2v40c2.4,2.2,4.8,4.6,6.9,7.1l30.8-32.3
	C368.4,23.8,333.6,8.8,285.3,8.8z"/>
</svg>
