<?xml version="1.0" encoding="utf-8"?>
<!-- Generator: Adobe Illustrator 24.0.2, SVG Export Plug-In . SVG Version: 6.00 Build 0)  -->
<svg version="1.1" id="Layer_1" xmlns="http://www.w3.org/2000/svg" xmlns:xlink="http://www.w3.org/1999/xlink" x="0px" y="0px"
	 viewBox="0 0 400 300" style="enable-background:new 0 0 400 300;" xml:space="preserve">
<style type="text/css">
	.st0{fill:#EE9E9F;}
	.st1{fill:#EF9EA0;}
	.st2{fill:#FFFFFF;}
</style>
<title>logo</title>
<path class="st0" d="M213.7,256.2h-25.5c4.4,2.9,9,5.5,13.8,7.8c-18.9,10.6-44.1,16.3-74.3,16.3c-55.8,0-97.2-19.7-121.9-49.9
	l33.8-30.2c5.5,5.9,11.5,11.4,18,16.2v39.3h157C214.3,255.7,214,256,213.7,256.2z"/>
<path class="st0" d="M131.3,8.1c-66.5,0-110.9,28.1-110.9,81c0,31.5,15.8,49.4,37.2,60.1V34.1h163.9C199.1,17.5,169.4,8.1,131.3,8.1
	z"/>
<path class="st1" d="M213.7,256.2c-3.7,2.9-7.6,5.5-11.7,7.8c-4.7-2.3-9.4-4.9-13.8-7.8H213.7z"/>
<path class="st0" d="M396.2,196.6c0,52.4-43.4,84.2-114.5,84.2c-31.1,0-57.9-6.2-79.7-16.9c4.1-2.3,8-4.9,11.7-7.8h140.7V134.8
	C378.2,144.9,396.2,163,396.2,196.6z"/>
<g>
	<path class="st2" d="M162.5,233.5c-9.3,3.2-20.8,4.8-33.7,4.8c-26.8,0-48.5-6.6-66.8-19v31.8h120
		C174.8,246,168.3,240.1,162.5,233.5z"/>
	<path class="st2" d="M283.4,49.9c31.1,0,52.2,9.1,66.6,20.3V38.6H227.1c0,0-0.1-0.1-0.1-0.1H61.9v112.9
		c13.9,6.2,29.9,9.6,45.2,11.9l41.2,6.6c22.2,3,39.8,9.1,39.8,31.1c0,1.4-0.1,2.7-0.2,4.1l5.6-5c0,0,0,0,0,0l-5.5,5
		c-1.5,14-10.9,23.3-25.5,28.4c5.8,6.6,12.4,12.5,19.5,17.6h37.7c6.4-6.1,11.6-13.4,15.4-21.4c0,0-0.1,0-0.1,0
		c4.9-10.6,7.3-22.1,7.2-33.7c0-16.4-4.3-29.2-11.6-39.2c0.1,0,0.1,0,0.2,0.1c9.9,2.9,20.1,5.1,30.4,6.5l41.2,6.6
		c22.2,3,39.8,9.1,39.8,31.1c0,25.7-24.2,37.3-59.4,37.3c-18.1,0-33.8-3-47.7-8.6c-3.8,8-9,15.3-15.4,21.4h130.2V132.5
		c-12.8-5-26.8-8-40.5-10l-41.2-6.6c-21.7-3-39.8-9.1-39.8-31.3C228.4,62,247.4,49.9,283.4,49.9z M155.3,122.4l-41.2-6.6
		c-21.7-3-39.8-9.1-39.8-31.3c0-22.6,19-34.7,54.9-34.7c21,0,37.4,4.1,50.3,10.3c0.1,0.1,0.2,0.1,0.3,0.2c0,0,0,0,0,0
		c-3.6,9.2-5.4,19.1-5.3,29c0,16.6,4.5,29.6,11.8,39.6c-0.1,0-0.1,0-0.2-0.1C176,125.9,165.7,123.8,155.3,122.4z"/>
</g>
<path class="st0" d="M285.3,8.8c-37.3,0-67.7,8.9-87.1,26h156.2v40c2.4,2.2,4.8,4.6,6.9,7.1l30.8-32.3
	C368.4,23.8,333.6,8.8,285.3,8.8z"/>
</svg>
