<svg id="Layer_1" data-name="Layer 1" xmlns="http://www.w3.org/2000/svg" width="400" height="300" viewBox="0 0 400 300"><defs><style>.cls-1{fill:#ee9e9f;}.cls-2{fill:#09096b;}.cls-3{fill:#ef9ea0;}.cls-4{fill:#09096c;}</style></defs><title>logo</title><path class="cls-1" d="M213.72,256.16h-25.5A137.71,137.71,0,0,0,202,264c-18.95,10.61-44.11,16.29-74.25,16.29-55.8,0-97.22-19.73-121.92-49.94l33.77-30.22a128.79,128.79,0,0,0,17.95,16.18v39.27H214.52C214.26,255.74,214,256,213.72,256.16Z"/><path class="cls-2" d="M182,251.09H62V219.28c18.31,12.44,40,19,66.83,19,12.92,0,24.36-1.56,33.67-4.82A115.37,115.37,0,0,0,182,251.09Z"/><path class="cls-2" d="M242.24,196a78.55,78.55,0,0,1-7.16,33.7c-15.86-6.45-29.4-16.44-41.53-29.61l-5.56,5a37.18,37.18,0,0,0,.22-4.08c0-22-17.59-28.08-39.81-31.1l-41.23-6.58C91.86,161,75.86,157.6,62,151.38V38.52H227.14a86.53,86.53,0,0,1,11,10.31L207.4,81.18a83.82,83.82,0,0,0-27.78-21C166.73,54,150.28,49.91,129.37,49.91c-35.9,0-54.92,12.08-54.92,34.66,0,22.21,18.13,28.26,39.82,31.28l41.23,6.57a219.66,219.66,0,0,1,30.76,6.42c17.85,5.31,34.07,13.72,44.39,27.91C237.86,166.72,242.24,179.48,242.24,196Z"/><path class="cls-1" d="M131.34,8.13c-66.48,0-110.91,28.08-110.91,81,0,31.46,15.82,49.41,37.15,60.08V34.08H221.45C199.05,17.55,169.37,8.13,131.34,8.13Z"/><path class="cls-3" d="M213.72,256.16A88,88,0,0,1,202,264a137.71,137.71,0,0,1-13.81-7.79Z"/><path class="cls-4" d="M396.17,196.62c0,52.43-43.37,84.24-114.46,84.24-31.13,0-57.86-6.19-79.68-16.91a88,88,0,0,0,11.69-7.79H354.4V134.76C378.21,144.9,396.17,163,396.17,196.62Z"/><path class="cls-4" d="M235.08,229.69a72.18,72.18,0,0,1-15.41,21.4H182a115.57,115.57,0,0,1-19.48-17.62c14.64-5.1,24-14.41,25.47-28.42l5.56-5C205.68,213.25,219.22,223.24,235.08,229.69Z"/><path class="cls-1" d="M228.39,84.56c0,22.21,18.13,28.26,39.81,31.28l41.23,6.57c13.69,2,27.73,5,40.53,10V251.09H219.67a72.18,72.18,0,0,0,15.41-21.4c13.91,5.65,29.6,8.6,47.69,8.6,35.19,0,59.37-11.55,59.37-37.32,0-22-17.6-28.08-39.82-31.1l-41.23-6.58a216.65,216.65,0,0,1-30.44-6.5c-17.71-5.33-34-13.77-44.39-27.91-7.42-10-11.9-23-11.9-39.7a77.29,77.29,0,0,1,5.27-29,65.92,65.92,0,0,1,14.1-21.65H350V70.17c-14.4-11.2-35.55-20.26-66.65-20.26C247.4,49.9,228.39,62,228.39,84.56Z"/><path class="cls-2" d="M285.26,8.75c-37.32,0-67.72,8.89-87.09,26H354.4v40a86.13,86.13,0,0,1,6.93,7.11l30.75-32.35C368.44,23.84,333.6,8.75,285.26,8.75Z"/></svg>
