<svg id="Layer_1" data-name="Layer 1" xmlns="http://www.w3.org/2000/svg" viewBox="0 0 500 500"><defs><style>.cls-1{fill:#c5a689;}.cls-2,.cls-8{fill:#fff5dc;}.cls-3{fill:#09096c;}.cls-4{fill:#7fc7e1;}.cls-5{fill:#000002;}.cls-6{fill:none;stroke:#000002;}.cls-6,.cls-7,.cls-8{stroke-miterlimit:10;}.cls-7{fill:#bcb491;stroke:#282724;}.cls-8{stroke:#000503;stroke-width:0.5px;}.cls-9{fill:#33302c;}.cls-10{fill:#6b665f;}</style></defs><title>Artboard 2</title><circle class="cls-1" cx="249.5" cy="250" r="145.5"/><circle class="cls-2" cx="281.64" cy="329.16" r="16"/><circle class="cls-2" cx="259.62" cy="337.26" r="11"/><circle class="cls-2" cx="272.26" cy="347.08" r="11"/><ellipse class="cls-2" cx="278.43" cy="316.25" rx="13.31" ry="13" transform="translate(-54.8 58.38) rotate(-10.9)"/><circle class="cls-2" cx="388.3" cy="252.32" r="14.5"/><circle class="cls-2" cx="387.34" cy="238.94" r="14.5"/><circle class="cls-2" cx="370.9" cy="245.56" r="14.5"/><circle class="cls-2" cx="399.14" cy="257.88" r="14.5"/><path class="cls-3" d="M194.55,237c6.08-9.09,11.11-16.56,15-22.51a20.15,20.15,0,0,1,5-5.5,22.38,22.38,0,0,1,12-4c16.58-1.33,24.87-2,27-2,24.49-.13,25.24-.92,35.52,0,11.32,1,16.95,2.55,20,3.5a89.81,89.81,0,0,1,17,7.5c2.32,1.25,7.89,4.32,22,14.51,10.09,7.28,15.14,10.91,18.51,14a103.23,103.23,0,0,1,19,23.51l2.5,3a10.76,10.76,0,0,1,1.51,6.5,10.59,10.59,0,0,1-1.51,4.5h-3l5,4,3,6.5,4,11a6.94,6.94,0,0,1-3,4.5c-3.37,2-9.3.14-13.51-5.5a73.6,73.6,0,0,0-6.5-11.51c-4.21-6.09-7.18-10.38-12.51-13.51a29,29,0,0,0-23.51-2.5,29.38,29.38,0,0,0-15.51,12.51L316.11,303a8,8,0,0,1-3,5,4.51,4.51,0,0,1-2.5,1c-2.14.05-3.7-2-4.51-3,0,0-1-1.29-3-6.51h-27l-85-.5v3a11,11,0,0,1-3,6c-4.52,4.49-11.23,2.58-11.51,2.5a12.76,12.76,0,0,1-7-5.5l-8-20.51a32,32,0,0,0-20-10.51,28.57,28.57,0,0,0-30,18q-1,4.75-2,9.51a12.32,12.32,0,0,1-9.51-1,11.47,11.47,0,0,1-4-4q2.5-9.5,5-19a35.24,35.24,0,0,1,.5-12,34.7,34.7,0,0,1,1.5-5l10-.5a83.23,83.23,0,0,1,19.51-12.51c10.31-4.72,18.94-6.07,32-8A238.38,238.38,0,0,1,194.55,237Z"/><path class="cls-4" d="M202.55,237.45a36.55,36.55,0,0,1,11-15,35.86,35.86,0,0,1,11-6l4-1,36-1a13.33,13.33,0,0,1,4.51,4c4.71,6.81,1,16.33,0,19a29.48,29.48,0,0,1-2.51,5h-32l-36,1Z"/><path class="cls-4" d="M283.59,213.44l10.51,2a136.87,136.87,0,0,1,15,4.51,134.8,134.8,0,0,1,15,6.5l6.51,5a7.75,7.75,0,0,1,2,3,6.58,6.58,0,0,1,0,5,6.33,6.33,0,0,1-3,3h-47c-3.51-.76-4.64-2-5-3-.28-.76-.1-1.35,0-3.5.08-1.7,0-3.09,0-4v-14a5.32,5.32,0,0,1,2-3.5A5.38,5.38,0,0,1,283.59,213.44Z"/><path d="M206.55,248V238a12.1,12.1,0,0,0-2.5,0,9.06,9.06,0,0,0-4.5,1.5,8,8,0,0,0-2.5,3,3.87,3.87,0,0,0,2.5,5.5Z"/><path class="cls-5" d="M193.55,309H305.1a6.71,6.71,0,0,0,1-3c.31-3.66-2.62-6.19-3-6.51h-112V302a6.8,6.8,0,0,0-1,7Z"/><ellipse class="cls-5" cx="346.87" cy="300.74" rx="28.26" ry="29.76"/><ellipse class="cls-5" cx="137.77" cy="299.73" rx="28.26" ry="29.76"/><path class="cls-6" d="M359.26,236.54l6.87,6.92a17.68,17.68,0,0,0-2,11l6.51,8.51,1,2-12.51-5a46.48,46.48,0,0,0-37,5,38.48,38.48,0,0,0-8,7.5,39.76,39.76,0,0,0-8,18q-1,4.5-2,9"/><path class="cls-6" d="M187.3,237.7a3.4,3.4,0,0,1,2,2c.59,2-1.57,4.09-3,5a6.69,6.69,0,0,1-2.5,1c-15.64,1.6-27.57,2.9-34,3.5a53,53,0,0,0-10.51,2,40.93,40.93,0,0,0-6.5,2.5,37.69,37.69,0,0,0-7,4.5"/><path class="cls-6" d="M191.8,299.48l1-51.77c1.48-2.57,4.61-8,9-15.51,3.78-6.48,5.75-9.79,9.51-13a32.34,32.34,0,0,1,8-5c4.11-.77,9.76-1.71,16.51-2.5a261.78,261.78,0,0,1,37-1.5l1.09,0c8.89.25,15,.47,23.42,2a99.71,99.71,0,0,1,19,5c11.41,4.36,19,10,25,14.51A130.38,130.38,0,0,1,364,253.57"/><line class="cls-6" x1="273.34" y1="298.73" x2="273.34" y2="210.19"/><path class="cls-7" d="M124.26,258.21c-.3-.21-.2-.84,0-2a14.71,14.71,0,0,1,.5-2,2.1,2.1,0,0,1,2,1.5,2.14,2.14,0,0,1-.76,1.72C125.54,257.92,124.66,258.49,124.26,258.21Z"/><path class="cls-8" d="M102,278a44.64,44.64,0,0,1,1.5-7.5A43.87,43.87,0,0,1,107,262l.78-1.24L103,261a34.91,34.91,0,0,0-2,17Z"/><path class="cls-8" d="M135.52,255.46c-1.13-2.68-9.31-1.66-10.51-1.5a2.46,2.46,0,0,1,1.51,2,2.59,2.59,0,0,1-2.51,2.5,61.81,61.81,0,0,1,6.51-.5c2.52,0,4.43.07,5-1A1.9,1.9,0,0,0,135.52,255.46Z"/><path class="cls-8" d="M380.64,266.47l7,11h1.62a11.67,11.67,0,0,0,0-6,7.38,7.38,0,0,0-1.12-2.55C386,266,381.3,266.41,380.64,266.47Z"/><path class="cls-9" d="M393.65,291a2.57,2.57,0,0,0,0-2,3.2,3.2,0,0,0-1-1,9.47,9.47,0,0,1-1.5-1.5l.5-.5h2a5.74,5.74,0,0,0,.5.5c.5.45.68.5,1.1.87a2.47,2.47,0,0,1,.9,1.13,2,2,0,0,1,0,1,1.47,1.47,0,0,1-.5,1c-.31.19-.54,0-1.08.1A2.26,2.26,0,0,0,393.65,291Z"/><circle class="cls-10" cx="347.62" cy="301.49" r="18.51"/><circle class="cls-10" cx="137.52" cy="300.49" r="18.51"/><path class="cls-10" d="M390.65,285.07c1,0,1.73.1,2.25.16a49.07,49.07,0,0,1,6.5,1.5l2,.5a3.85,3.85,0,0,1,2,1.5c.36.56.53,1.2.5,3,0,2.51,0,3.76-.5,4.5-.9,1.5-2.62,1.92-5,2.5a18.1,18.1,0,0,1-5.5.5h-3.5v-8a27.78,27.78,0,0,0,4.5-.5c1-.19,1.68-.39,2-1a1.93,1.93,0,0,0,0-1.5c-.51-1.31-2.51-2.05-5-2Z"/><circle class="cls-2" cx="313.5" cy="334" r="7.5"/><circle class="cls-2" cx="313.5" cy="327" r="7.5"/><circle class="cls-2" cx="320.5" cy="332" r="7.5"/><circle class="cls-2" cx="323.5" cy="340" r="7.5"/><ellipse class="cls-2" cx="359.5" cy="205.19" rx="9.11" ry="8.78" transform="translate(-48.23 133.78) rotate(-19.78)"/><ellipse class="cls-2" cx="367.5" cy="202.31" rx="9.11" ry="8.78" transform="matrix(0.94, -0.34, 0.34, 0.94, -46.78, 136.32)"/><ellipse class="cls-2" cx="364.55" cy="212.07" rx="9.11" ry="8.78" transform="translate(-50.26 135.9) rotate(-19.78)"/><ellipse class="cls-2" cx="356.6" cy="218.67" rx="9.11" ry="8.78" transform="translate(-52.96 133.59) rotate(-19.78)"/><circle class="cls-2" cx="333" cy="189.5" r="16"/><circle class="cls-2" cx="318.14" cy="171.34" r="11"/><circle class="cls-2" cx="313" cy="186.5" r="11"/><ellipse class="cls-2" cx="344.15" cy="182.24" rx="13" ry="13.31" transform="translate(-45.01 196.49) rotate(-30)"/></svg>
