<?xml version="1.0" encoding="utf-8"?>
<!-- Generator: Adobe Illustrator 24.0.2, SVG Export Plug-In . SVG Version: 6.00 Build 0)  -->
<svg version="1.1" id="Layer_1" xmlns="http://www.w3.org/2000/svg" xmlns:xlink="http://www.w3.org/1999/xlink" x="0px" y="0px"
	 viewBox="0 0 500 500" style="enable-background:new 0 0 500 500;" xml:space="preserve">
<style type="text/css">
	.st0{fill:#C5A689;}
	.st1{fill:#F7F2EB;}
	.st2{fill:#1717AF;}
	.st3{fill:#000002;}
	.st4{fill:none;stroke:#000002;stroke-miterlimit:10;}
	.st5{fill:#BCB491;stroke:#282724;stroke-miterlimit:10;}
	.st6{fill:#33302C;}
	.st7{fill:#F4C3CB;}
	.st8{fill:#25282A;}
</style>
<title>Artboard 2</title>
<g>
	<circle class="st0" cx="251.1" cy="250" r="220"/>
	<circle class="st1" cx="299.7" cy="369.7" r="24.2"/>
	<circle class="st1" cx="266.4" cy="381.9" r="16.6"/>
	<circle class="st1" cx="285.6" cy="396.8" r="16.6"/>

		<ellipse transform="matrix(0.982 -0.1891 0.1891 0.982 -60.9033 62.0746)" class="st1" cx="294.9" cy="350.2" rx="20.1" ry="19.7"/>
	<circle class="st1" cx="461" cy="253.5" r="21.9"/>
	<circle class="st1" cx="459.6" cy="233.3" r="21.9"/>
	<circle class="st1" cx="434.7" cy="243.3" r="21.9"/>
	<circle class="st1" cx="477.4" cy="261.9" r="21.9"/>
	<path class="st2" d="M168.1,230.3c9.2-13.7,16.8-25,22.7-34c2-3.2,4.5-6,7.6-8.3c5.3-3.7,11.6-5.8,18.1-6c25.1-2,37.6-3,40.8-3
		c37-0.2,38.2-1.4,53.7,0c17.1,1.5,25.6,3.9,30.2,5.3c8.9,2.9,17.6,6.7,25.7,11.3c3.5,1.9,11.9,6.5,33.3,21.9
		c15.3,11,22.9,16.5,28,21.2c11.3,10.4,20.9,22.4,28.7,35.5l3.8,4.5c1.8,3,2.6,6.4,2.3,9.8c-0.2,2.4-1,4.7-2.3,6.8h-4.5l7.6,6
		l4.5,9.8l6,16.6c-0.5,2.8-2.2,5.2-4.5,6.8c-5.1,3-14.1,0.2-20.4-8.3c-2.7-6.1-6-11.9-9.8-17.4c-6.4-9.2-10.9-15.7-18.9-20.4
		c-10.8-6.3-23.7-7.6-35.5-3.8c-9.8,3.4-18.1,10.1-23.5,18.9l-9.7,26.5c-0.5,3-2.1,5.7-4.5,7.6c-1.1,0.9-2.4,1.4-3.8,1.5
		c-3.2,0.1-5.6-3-6.8-4.5c0,0-1.5-2-4.5-9.8h-40.8l-128.5-0.8v4.5c-0.5,3.4-2.1,6.6-4.5,9.1c-6.8,6.8-17,3.9-17.4,3.8
		c-4.4-1.4-8.2-4.4-10.6-8.3l-12.1-31c-7.8-8.8-18.6-14.4-30.2-15.9c-19.6-2.3-38.2,8.9-45.4,27.2c-1,4.8-2,9.6-3,14.4
		c-4.8,1.5-10,0.9-14.4-1.5c-2.5-1.5-4.6-3.6-6-6c2.5-9.6,5-19.2,7.6-28.7c-0.8-6-0.5-12.2,0.8-18.1c0.6-2.6,1.3-5.1,2.3-7.6
		l15.1-0.8c8.9-7.7,18.8-14,29.5-18.9C90,239,103,237,122.8,234.1C137.8,231.9,152.9,230.6,168.1,230.3z"/>
	<path class="st1" d="M180.2,231c3.5-8.9,9.2-16.7,16.6-22.7c5-4,10.6-7,16.6-9.1l6-1.5l54.4-1.5c2.7,1.5,5,3.5,6.8,6
		c7.1,10.3,1.5,24.7,0,28.7c-1,2.6-2.3,5.2-3.8,7.6h-48.4l-54.4,1.5L180.2,231z"/>
	<path class="st1" d="M302.7,194.7l15.9,3c7.7,1.8,15.3,4.1,22.7,6.8c7.8,2.8,15.3,6.1,22.7,9.8l9.8,7.6c1.4,1.3,2.4,2.8,3,4.5
		c1,2.4,1,5.1,0,7.6c-0.9,2-2.5,3.6-4.5,4.5h-71.1c-5.3-1.1-7-3-7.6-4.5c-0.4-1.1-0.2-2,0-5.3c0.1-2.6,0-4.7,0-6v-21.2
		c0.3-2.1,1.4-4,3-5.3C298.4,195,300.6,194.4,302.7,194.7z"/>
	<path d="M186.2,247v-15.1c-1.3-0.1-2.5-0.1-3.8,0c-2.4,0.1-4.8,0.9-6.8,2.3c-1.6,1.2-2.9,2.7-3.8,4.5c-1.5,2.9-0.3,6.4,2.6,7.9
		c0.4,0.2,0.8,0.3,1.2,0.5H186.2z"/>
	<path class="st3" d="M166.6,339.2h168.7c0.9-1.4,1.4-2.9,1.5-4.5c0.5-5.5-4-9.4-4.5-9.8H162.8v3.8c-2.4,3-3,7.1-1.5,10.6H166.6z"/>
	<ellipse class="st3" cx="398.4" cy="326.7" rx="42.7" ry="45"/>
	<ellipse class="st3" cx="82.2" cy="325.2" rx="42.7" ry="45"/>
	<path class="st4" d="M417.1,229.6l10.4,10.5c-2.8,5.1-3.8,10.9-3,16.6l9.8,12.9l1.5,3l-18.9-7.6c-18.9-5.4-39.2-2.7-55.9,7.6
		c-4.6,3.2-8.6,7-12.1,11.3c-6.3,7.9-10.4,17.3-12.1,27.2c-1,4.5-2,9.1-3,13.6"/>
	<path class="st4" d="M157.1,231.4c1.4,0.5,2.5,1.6,3,3c0.9,3-2.4,6.2-4.5,7.6c-1.1,0.8-2.4,1.3-3.8,1.5
		c-23.6,2.4-41.7,4.4-51.4,5.3c-5.4,0.5-10.7,1.5-15.9,3c-3.4,1-6.7,2.2-9.8,3.8c-3.8,1.9-7.3,4.2-10.6,6.8"/>
	<path class="st4" d="M163.9,324.8l1.5-78.3c2.2-3.9,7-12.1,13.6-23.5c5.7-9.8,8.7-14.8,14.4-19.7c3.6-3.1,7.7-5.6,12.1-7.6
		c6.2-1.2,14.8-2.6,25-3.8c18.6-2.1,37.3-2.8,55.9-2.3h1.6c13.4,0.4,22.7,0.7,35.4,3c9.8,1.6,19.4,4.1,28.7,7.6
		c17.3,6.6,28.7,15.1,37.8,21.9c12.7,9.6,24.2,20.7,34.3,33.1"/>
	<line class="st4" x1="287.2" y1="323.7" x2="287.2" y2="189.8"/>
	<path class="st5" d="M61.8,262.4c-0.5-0.3-0.3-1.3,0-3c0.2-1,0.4-2,0.8-3c1.4,0,2.6,0.9,3,2.3c0,1-0.4,2-1.1,2.6
		C63.7,262,62.4,262.8,61.8,262.4z"/>
	<path class="st1" d="M28.1,292.3c0.4-3.8,1.2-7.6,2.3-11.3c1.3-4.5,3.1-8.8,5.3-12.9l1.2-1.9l-7.2,0.4c-3.1,8.2-4.2,17-3,25.7H28.1
		z"/>
	<path class="st1" d="M78.8,258.3c-1.7-4.1-14.1-2.5-15.9-2.3c1.3,0.5,2.1,1.7,2.3,3c-0.1,2.1-1.7,3.7-3.8,3.8
		c3.3-0.4,6.6-0.7,9.8-0.8c3.8,0,6.7,0.1,7.6-1.5C79.1,259.8,79.1,259,78.8,258.3z"/>
	<path class="st1" d="M449.4,274.9l10.6,16.6h2.4c0.8-3,0.8-6.1,0-9.1c-0.3-1.4-0.9-2.7-1.7-3.9
		C457.5,274.2,450.4,274.8,449.4,274.9z"/>
	<path class="st6" d="M469.1,312c0.4-1,0.4-2.1,0-3c-0.4-0.6-0.9-1.1-1.5-1.5c-0.8-0.7-1.6-1.4-2.3-2.3l0.8-0.8h3
		c0.2,0.3,0.5,0.5,0.8,0.8c0.8,0.7,1,0.8,1.7,1.3c0.6,0.4,1.1,1,1.4,1.7c0.1,0.5,0.1,1,0,1.5c0,0.6-0.3,1.1-0.8,1.5
		c-0.5,0.3-0.8,0-1.6,0.2C470,311.5,469.5,311.7,469.1,312z"/>
	<circle class="st7" cx="399.5" cy="327.9" r="28"/>

		<ellipse transform="matrix(7.088906e-02 -0.9975 0.9975 7.088906e-02 -249.4908 384.8337)" class="st7" cx="81.8" cy="326.3" rx="28" ry="28"/>
	<path class="st8" d="M464.6,303c1.5,0,2.6,0.2,3.4,0.2c3.3,0.5,6.6,1.3,9.8,2.3l3,0.8c1.2,0.4,2.3,1.2,3,2.3
		c0.5,0.8,0.8,1.8,0.8,4.5c0,3.8,0,5.7-0.8,6.8c-1.4,2.3-4,2.9-7.6,3.8c-2.7,0.7-5.5,0.9-8.3,0.8h-5.3v-12.1
		c2.3-0.1,4.6-0.3,6.8-0.8c1.5-0.3,2.5-0.6,3-1.5c0.3-0.7,0.3-1.5,0-2.3c-0.8-2-3.8-3.1-7.6-3L464.6,303z"/>
	<circle class="st1" cx="347.9" cy="377" r="11.3"/>
	<circle class="st1" cx="347.9" cy="366.4" r="11.3"/>
	<circle class="st1" cx="358.5" cy="374" r="11.3"/>
	<circle class="st1" cx="363" cy="386.1" r="11.3"/>

		<ellipse transform="matrix(0.941 -0.3384 0.3384 0.941 -37.0506 152.029)" class="st1" cx="417.5" cy="182.3" rx="13.8" ry="13.3"/>

		<ellipse transform="matrix(0.9404 -0.3401 0.3401 0.9404 -34.5036 156.6257)" class="st1" cx="429.5" cy="176.7" rx="13.8" ry="13.3"/>

		<ellipse transform="matrix(0.941 -0.3384 0.3384 0.941 -40.1231 155.2274)" class="st1" cx="425.1" cy="192.7" rx="13.8" ry="13.3"/>

		<ellipse transform="matrix(0.941 -0.3384 0.3384 0.941 -44.2046 151.7488)" class="st1" cx="413.1" cy="202.6" rx="13.8" ry="13.3"/>
	<circle class="st1" cx="377.4" cy="158.5" r="24.2"/>
	<circle class="st1" cx="354.9" cy="131.1" r="16.6"/>
	<circle class="st1" cx="347.2" cy="154" r="16.6"/>
	<ellipse transform="matrix(0.866 -0.5 0.5 0.866 -20.9505 216.9)" class="st1" cx="394.3" cy="147.5" rx="19.7" ry="20.1"/>
</g>
</svg>
