<svg id="Layer_1" data-name="Layer 1" xmlns="http://www.w3.org/2000/svg" viewBox="0 0 500 500"><defs><style>.cls-1{fill:#09096c;}.cls-2{fill:#ef9ea0;}.cls-2,.cls-3,.cls-4,.cls-5{stroke:#050404;}.cls-2,.cls-3,.cls-4,.cls-5,.cls-6,.cls-7{stroke-miterlimit:10;}.cls-3,.cls-4,.cls-6,.cls-7{fill:none;}.cls-4{stroke-width:2px;}.cls-5{fill:#fc9956;}.cls-6{stroke:#15ffd2;}.cls-6,.cls-7{stroke-width:0.5px;}.cls-7{stroke:#ff1717;}</style></defs><title>Artboard 2 copy 2</title><circle class="cls-1" cx="252.5" cy="245" r="145.5"/><path class="cls-2" d="M171.65,289.49c1.42-7.35,6.25-11.85,9.16-14.55a40.46,40.46,0,0,1,21.82-10.19,65.78,65.78,0,0,1,20.29-4.95A60.91,60.91,0,0,1,247.68,263,175.49,175.49,0,0,1,286,273.49a187.07,187.07,0,0,1,36.31,19.42l19.65-3.4c7.49-3.33,14.64-2.34,18.4,2.95.76,1.07,2.43,3.42,2.17,6.26-.54,5.75-8.8,11.16-20.91,13l-6.58,1.31,21.2,14.18c1.36,3.4,2.74,8,1.19,10.48-2.41,3.83-10.54.55-17.63-2.31L316.3,322.55a139.38,139.38,0,0,1-44.2,11.6c-40.41,3.55-71.71-12.79-82.26-20.55-1.53-1.12-16-11.86-16-11.86l-3.5-2.63,10-1.41a6.49,6.49,0,0,0,.14-4.33c-1-2.61-4.87-3.63-9.23-1.21A20.23,20.23,0,0,1,171.65,289.49Z"/><path class="cls-3" d="M254.92,274.58a3.3,3.3,0,0,1,5.46.72,5.86,5.86,0,0,1-.77,5.87"/><path class="cls-3" d="M297.87,309.43c1.1,2.5.22,5.65-1.57,6.8a3.19,3.19,0,0,1-4.49-1.33"/><path class="cls-3" d="M283,285.32l5,1.19a2.61,2.61,0,0,1,.63,1.71c-.06,1.42-1.59,3-3.85,3.3"/><path class="cls-3" d="M305.19,291.78l4.9,3.17a3.63,3.63,0,0,1,.2,2.26c-.45,1.67-2.46,3-4.93,2.58"/><path class="cls-3" d="M243,313.49l4.89,3.17a3.67,3.67,0,0,1,.21,2.26,4.2,4.2,0,0,1-4.93,2.58"/><path class="cls-3" d="M228.31,314.29a4,4,0,0,1,.28,4.87,2.32,2.32,0,0,1-3.29.57"/><path class="cls-3" d="M231.51,266.39a2.46,2.46,0,0,1,3.48,1.94,4,4,0,0,1-1.49,3.83"/><path class="cls-4" d="M197.28,274.65a29,29,0,0,1,5.81,4.56,34.26,34.26,0,0,1,4.76,6.06"/><path class="cls-4" d="M207.81,274.12a53,53,0,0,1-5,5.86,47.08,47.08,0,0,1-6.71,5.64"/><path class="cls-4" d="M229.5,281.31a18.05,18.05,0,0,1,2.65,9,21.2,21.2,0,0,1-.83,6.41,22.19,22.19,0,0,1-5,9.12"/><path class="cls-4" d="M237.84,282.94a15.2,15.2,0,0,1,2.92,8.12,15.88,15.88,0,0,1-.75,5.71,18.17,18.17,0,0,1-5,8.05"/><path class="cls-4" d="M326.73,298.38a17.69,17.69,0,0,1,4.33-.52,16.79,16.79,0,0,1,4.2.55"/><path class="cls-4" d="M328.7,303.1a13.7,13.7,0,0,1,3-.28,13.47,13.47,0,0,1,2.92.38"/><path class="cls-4" d="M329.85,320.07a28.21,28.21,0,0,1-2.88-.71c-1.09-.34-2-.7-2.79-1"/><path class="cls-4" d="M325.89,314.57a10.33,10.33,0,0,1,4.19.55,10.86,10.86,0,0,1,2.8,1.45"/><path class="cls-5" d="M123.14,199.64a30.71,30.71,0,0,1,5.38-15.52c5.35-8.58,12.14-11.72,15.21-12.84A89.24,89.24,0,0,1,152.5,168a92.7,92.7,0,0,1,24.5-4.22,101.36,101.36,0,0,1,29.47,5.36,121.14,121.14,0,0,1,28.83,14.44l14.26-5.88c5.23-4.25,10.64-4.19,13.94.53a10.78,10.78,0,0,1,2.22,5.89c.16,5.73-5.45,12.12-14.26,15.52l-4.75,2.14L263.82,213c1.34,3.17,2.81,7.52,1.9,10.16-1.41,4.09-7.77,1.91-13.31,0l-18.69-9.63C221,223.76,209.82,228.39,202,230.68c-29.64,8.7-54.46-3.35-63.05-9.64-1.25-.91-13-9.63-13-9.63l-2.85-2.14,7.28-2.67a8.36,8.36,0,0,0-.31-4.29c-1-2.44-4-2.94-7,0C123.11,201.68,123.09,200.75,123.14,199.64Z"/><path class="cls-3" d="M183.5,174.22c1.23-2.06,3.16-1.87,4.11,0a7.43,7.43,0,0,1,0,5.89"/><path class="cls-3" d="M218.76,203c1.06,2.32.71,5.53-.51,6.9-1,1.12-2.47.88-3.46-.73"/><path class="cls-3" d="M205.36,181.18l3.8.53a2.91,2.91,0,0,1,.63,1.61,3.93,3.93,0,0,1-2.53,3.74"/><path class="cls-3" d="M222.48,184.68l3.94,2.49a4.66,4.66,0,0,1,.37,2.2,3.39,3.39,0,0,1-3.41,3.17"/><path class="cls-3" d="M178.42,214.08l3.94,2.49a4.7,4.7,0,0,1,.37,2.21,3.4,3.4,0,0,1-3.41,3.17"/><path class="cls-3" d="M167.6,216.76a4.93,4.93,0,0,1,.69,4.76c-.5,1.16-1.5,1.63-2.39,1"/><path class="cls-3" d="M165.32,169.16c1.08-.94,2.36-.13,2.77,1.47a4.83,4.83,0,0,1-.73,4"/><path class="cls-4" d="M140.72,181.71a21.37,21.37,0,0,1,4.75,3.75,31,31,0,0,1,4.12,5.35"/><path class="cls-4" d="M148.48,179.84a57.23,57.23,0,0,1-3.16,6.42,45.9,45.9,0,0,1-4.44,6.42"/><path class="cls-4" d="M165.28,184.12a21,21,0,0,1,2.85,8.56,27.5,27.5,0,0,1,0,6.42,26.51,26.51,0,0,1-2.85,9.64"/><path class="cls-4" d="M171.63,184.66a17.1,17.1,0,0,1,3,7.62,21.32,21.32,0,0,1,0,5.71,21,21,0,0,1-3,8.58"/><path class="cls-4" d="M239.1,188.4a10.8,10.8,0,0,1,3.17-1.07,9.85,9.85,0,0,1,3.17,0"/><path class="cls-4" d="M241,192.8a8.37,8.37,0,0,1,2.21-.67,7.74,7.74,0,0,1,2.21,0"/><path class="cls-4" d="M243.53,209.36a15.21,15.21,0,0,1-2.21-.32,16.94,16.94,0,0,1-2.17-.65"/><path class="cls-4" d="M240.05,204.45a6.1,6.1,0,0,1,3.17,0,7.18,7.18,0,0,1,2.22,1.08"/><path class="cls-6" d="M131.38,169.49a76.54,76.54,0,0,1,15.41,23.92,86.62,86.62,0,0,1,6.35,33.27"/><path class="cls-6" d="M139.31,162.66a88,88,0,0,1,15.25,27,109.85,109.85,0,0,1,6.28,37.55"/><path class="cls-6" d="M147.47,158.5a95.32,95.32,0,0,1,15.25,28.73,123.8,123.8,0,0,1,6.28,40"/><line class="cls-6" x1="153.88" y1="167.86" x2="138.42" y2="178.08"/><line class="cls-6" x1="161.62" y1="183.87" x2="146.16" y2="194.1"/><line class="cls-6" x1="159.81" y1="176.59" x2="144.35" y2="186.82"/><line class="cls-6" x1="167.97" y1="201.55" x2="152.51" y2="211.77"/><line class="cls-6" x1="164.34" y1="191.15" x2="148.88" y2="201.38"/><line class="cls-6" x1="166.16" y1="196.35" x2="150.7" y2="206.58"/><line class="cls-6" x1="168.88" y1="210.91" x2="153.42" y2="221.13"/><path class="cls-6" d="M120.5,177.24a76.63,76.63,0,0,1,15.42,23.91,86.64,86.64,0,0,1,6.34,33.28"/><path class="cls-6" d="M128.44,170.4a88.34,88.34,0,0,1,15.25,27A110,110,0,0,1,150,235"/><path class="cls-6" d="M136.6,166.24A95.9,95.9,0,0,1,151.85,195a124.06,124.06,0,0,1,6.27,40"/><line class="cls-6" x1="143" y1="175.6" x2="127.54" y2="185.83"/><line class="cls-6" x1="150.75" y1="191.61" x2="135.29" y2="201.84"/><line class="cls-6" x1="148.94" y1="184.34" x2="133.48" y2="194.56"/><line class="cls-6" x1="157.09" y1="209.29" x2="141.63" y2="219.52"/><line class="cls-6" x1="153.47" y1="198.89" x2="138.01" y2="209.12"/><line class="cls-6" x1="155.28" y1="204.09" x2="139.82" y2="214.32"/><path class="cls-7" d="M250.57,329.92c-8.73-2.71-22.36-8.06-34.52-18.54-14.37-12.39-19.69-25.9-21.85-33.52"/><path class="cls-7" d="M239,341.53a103.7,103.7,0,0,1-35.23-22,85.92,85.92,0,0,1-23.13-38.28"/><path class="cls-7" d="M226.26,350.3a108.23,108.23,0,0,1-35.8-23.94,96.15,96.15,0,0,1-23.92-40.95"/><line class="cls-7" x1="212.1" y1="343.24" x2="235.56" y2="324.03"/><line class="cls-7" x1="193.45" y1="329.51" x2="216.92" y2="310.3"/><line class="cls-7" x1="198.97" y1="336.62" x2="222.43" y2="317.41"/><line class="cls-7" x1="176.69" y1="313.22" x2="200.15" y2="294.02"/><line class="cls-7" x1="186.37" y1="322.86" x2="209.83" y2="303.65"/><line class="cls-7" x1="181.53" y1="318.04" x2="204.99" y2="298.83"/><line class="cls-7" x1="172.07" y1="303.35" x2="195.53" y2="284.14"/><path class="cls-7" d="M266.89,315.8c-8.73-2.71-22.35-8.06-34.51-18.54-14.38-12.39-19.7-25.9-21.86-33.52"/><path class="cls-7" d="M255.36,327.41a103.8,103.8,0,0,1-35.23-22A86,86,0,0,1,197,267.11"/><path class="cls-7" d="M242.58,336.18a108.23,108.23,0,0,1-35.8-23.94,96.15,96.15,0,0,1-23.92-40.95"/><line class="cls-7" x1="228.43" y1="329.12" x2="251.89" y2="309.91"/><line class="cls-7" x1="209.78" y1="315.39" x2="233.24" y2="296.18"/><line class="cls-7" x1="215.29" y1="322.5" x2="238.76" y2="303.29"/><line class="cls-7" x1="193.01" y1="299.11" x2="216.47" y2="279.9"/><line class="cls-7" x1="202.69" y1="308.74" x2="226.15" y2="289.53"/><line class="cls-7" x1="197.85" y1="303.92" x2="221.31" y2="284.71"/></svg>
