<?xml version="1.0" encoding="utf-8"?>
<!-- Generator: Adobe Illustrator 24.0.2, SVG Export Plug-In . SVG Version: 6.00 Build 0)  -->
<svg version="1.1" id="Layer_1" xmlns="http://www.w3.org/2000/svg" xmlns:xlink="http://www.w3.org/1999/xlink" x="0px" y="0px"
	 viewBox="0 0 500 500" style="enable-background:new 0 0 500 500;" xml:space="preserve">
<style type="text/css">
	.st0{fill:#1717AF;}
	.st1{fill:#F4C3CB;}
	.st2{fill:none;stroke:#1717AF;stroke-miterlimit:10;}
	.st3{fill:#C5A689;}
	.st4{fill:none;stroke:#15FFD2;stroke-width:0.5;stroke-miterlimit:10;}
	.st5{fill:none;stroke:#FF1717;stroke-width:0.5;stroke-miterlimit:10;}
</style>
<title>Artboard 2 copy 2</title>
<g>
	<circle class="st0" cx="250" cy="249.7" r="220"/>
	<path class="st1" d="M127.8,317c2.1-11.1,9.5-17.9,13.9-22c9.2-8.4,20.7-13.7,33-15.4c9.8-4.1,20.1-6.6,30.7-7.5
		c12.7-1,25.4,0.7,37.4,4.8c19.9,3.1,39.3,8.4,57.9,15.9c19.3,7.7,37.7,17.6,54.9,29.4l29.7-5.1c11.3-5,22.1-3.5,27.8,4.5
		c1.1,1.6,3.7,5.2,3.3,9.5c-0.8,8.7-13.3,16.9-31.6,19.7l-9.9,2l32.1,21.4c2.1,5.1,4.1,12.1,1.8,15.8c-3.6,5.8-15.9,0.8-26.7-3.5
		l-35.5-19.4c-21.2,9.5-43.7,15.4-66.8,17.5c-61.1,5.4-108.4-19.3-124.4-31.1c-2.3-1.7-24.2-17.9-24.2-17.9l-5.3-4l15.1-2.1
		c0.8-2.1,0.9-4.4,0.2-6.5c-1.5-3.9-7.4-5.5-14-1.8C127.3,319.6,127.5,318.3,127.8,317z"/>
	<path class="st2" d="M253.7,294.4c1.8-2.1,5-2.3,7-0.5c0.5,0.4,0.9,1,1.2,1.6c1.2,3,0.8,6.3-1.2,8.9"/>
	<path class="st2" d="M318.6,347.1c1.7,3.8,0.3,8.5-2.4,10.3c-2.3,1.4-5.2,0.6-6.6-1.7c-0.1-0.1-0.1-0.2-0.2-0.3"/>
	<path class="st2" d="M296.1,310.7l7.6,1.8c0.6,0.7,1,1.6,1,2.6c-0.1,2.1-2.4,4.5-5.8,5"/>
	<path class="st2" d="M329.7,320.4l7.4,4.8c0.5,1.1,0.6,2.3,0.3,3.4c-0.7,2.5-3.7,4.5-7.5,3.9"/>
	<path class="st2" d="M235.6,353.2l7.4,4.8c0.5,1.1,0.6,2.3,0.3,3.4c-1.1,3-4.3,4.7-7.5,3.9"/>
	<path class="st2" d="M213.4,354.5c1.8,2.1,2,5.1,0.4,7.4c-1.1,1.6-3.3,2-4.9,0.9c0,0-0.1,0-0.1-0.1"/>
	<path class="st2" d="M218.3,282c1.9-0.9,4.1-0.1,4.9,1.8c0.2,0.4,0.3,0.7,0.3,1.1c0.4,2.2-0.5,4.4-2.3,5.8"/>
	<path class="st2" d="M166.5,294.5c3.2,1.9,6.2,4.2,8.8,6.9c2.7,2.8,5.2,5.8,7.2,9.2"/>
	<path class="st2" d="M182.4,293.7c-2.3,3.1-4.8,6.1-7.6,8.9c-3.1,3.2-6.5,6-10.1,8.5"/>
	<path class="st2" d="M215.2,304.6c2.5,4.1,3.9,8.8,4,13.6c0.1,3.3-0.3,6.5-1.3,9.7c-1.4,5.1-4,9.9-7.6,13.8"/>
	<path class="st2" d="M227.8,307.1c2.6,3.6,4.2,7.8,4.4,12.3c0.2,2.9-0.2,5.8-1.1,8.6c-1.4,4.7-4,8.9-7.6,12.2"/>
	<path class="st2" d="M362.2,330.4c2.1-0.5,4.3-0.8,6.5-0.8c2.1,0,4.3,0.3,6.4,0.8"/>
	<path class="st2" d="M365.2,337.5c1.5-0.3,3-0.4,4.5-0.4c1.5,0,3,0.2,4.4,0.6"/>
	<path class="st2" d="M367,363.2c-1.5-0.3-2.9-0.6-4.4-1.1c-1.6-0.5-3-1.1-4.2-1.5"/>
	<path class="st2" d="M361,354.9c2.1-0.2,4.3,0.1,6.3,0.8c1.5,0.5,2.9,1.3,4.2,2.2"/>
	<path class="st3" d="M54.4,181.1c0.5-8.4,3.3-16.5,8.1-23.5c8.1-13,18.4-17.7,23-19.4c4.3-1.9,8.8-3.5,13.3-5
		c12-3.8,24.5-5.9,37-6.4c15.2,0.5,30.2,3.2,44.6,8.1c15.4,5.3,30.1,12.6,43.6,21.8l21.6-8.9c7.9-6.4,16.1-6.3,21.1,0.8
		c2,2.6,3.1,5.7,3.4,8.9c0.2,8.7-8.2,18.3-21.6,23.5l-7.2,3.2l25.9,17c2,4.8,4.2,11.4,2.9,15.4c-2.1,6.2-11.7,2.9-20.1,0l-28.3-14.6
		c-19.2,15.5-36.1,22.5-48,25.9c-44.8,13.2-82.3-5.1-95.3-14.6c-1.9-1.4-19.7-14.6-19.7-14.6l-4.3-3.2l11-4c0.4-2.2,0.3-4.4-0.5-6.5
		c-1.5-3.7-6-4.4-10.6,0C54.4,184.2,54.3,182.8,54.4,181.1z"/>
	<path class="st2" d="M145.7,142.7c1.9-3.1,4.8-2.8,6.2,0c1.2,2.8,1.2,6.1,0,8.9"/>
	<path class="st2" d="M199,186.2c1.6,3.5,1.1,8.4-0.8,10.4c-1.5,1.7-3.7,1.3-5.2-1.1"/>
	<path class="st2" d="M178.7,153.2l5.7,0.8c0.6,0.7,0.9,1.5,1,2.4c0,2.5-1.5,4.8-3.8,5.7"/>
	<path class="st2" d="M204.6,158.5l6,3.8c0.5,1,0.6,2.2,0.6,3.3c-0.2,2.7-2.4,4.8-5.2,4.8"/>
	<path class="st2" d="M138,202.9l6,3.8c0.5,1.1,0.6,2.2,0.6,3.3c-0.2,2.7-2.4,4.8-5.2,4.8"/>
	<path class="st2" d="M121.6,207c1.6,2.1,2,4.8,1,7.2c-0.8,1.8-2.3,2.5-3.6,1.5"/>
	<path class="st2" d="M118.2,135c1.6-1.4,3.6-0.2,4.2,2.2c0.5,2.1,0.1,4.3-1.1,6"/>
	<path class="st2" d="M81,154c2.7,1.5,5.1,3.4,7.2,5.7c2.4,2.5,4.5,5.2,6.2,8.1"/>
	<path class="st2" d="M92.7,151.2c-1.4,3.3-3,6.6-4.8,9.7c-2,3.4-4.2,6.7-6.7,9.7"/>
	<path class="st2" d="M118.1,157.6c2.4,4,3.8,8.4,4.3,12.9c0.4,3.2,0.4,6.5,0,9.7c-0.5,5.1-2,10-4.3,14.6"/>
	<path class="st2" d="M127.7,158.5c2.4,3.4,4,7.4,4.5,11.5c0.4,2.9,0.4,5.8,0,8.6c-0.5,4.6-2.1,9-4.5,13"/>
	<path class="st2" d="M229.7,164.1c1.5-0.8,3.1-1.3,4.8-1.6c1.6-0.3,3.2-0.3,4.8,0"/>
	<path class="st2" d="M232.6,170.8c1.1-0.5,2.2-0.8,3.3-1c1.1-0.2,2.2-0.2,3.3,0"/>
	<path class="st2" d="M236.4,195.8c-1.1-0.1-2.2-0.2-3.3-0.5c-1.1-0.3-2.2-0.6-3.3-1"/>
	<path class="st2" d="M231.2,188.4c1.6-0.4,3.2-0.4,4.8,0c1.2,0.3,2.3,0.9,3.4,1.6"/>
	<path class="st4" d="M66.9,135.5c10,10.5,17.9,22.8,23.3,36.2c6.5,16,9.7,33.1,9.6,50.3"/>
	<path class="st4" d="M78.9,125.2c10,12.1,17.8,26,23.1,40.8c6.4,18.2,9.7,37.4,9.5,56.8"/>
	<path class="st4" d="M91.2,118.9c10.1,13.1,17.9,27.7,23.1,43.4c6.5,19.5,9.7,39.9,9.5,60.5"/>
	<line class="st4" x1="100.9" y1="133" x2="77.5" y2="148.5"/>
	<line class="st4" x1="112.6" y1="157.3" x2="89.2" y2="172.7"/>
	<line class="st4" x1="109.9" y1="146.2" x2="86.5" y2="161.7"/>
	<line class="st4" x1="122.2" y1="184" x2="98.8" y2="199.4"/>
	<line class="st4" x1="116.7" y1="168.3" x2="93.3" y2="183.7"/>
	<line class="st4" x1="119.5" y1="176.1" x2="96.1" y2="191.6"/>
	<line class="st4" x1="123.6" y1="198.1" x2="100.2" y2="213.6"/>
	<path class="st4" d="M50.4,147.2c10,10.5,17.9,22.8,23.3,36.2c6.5,16,9.7,33.1,9.6,50.3"/>
	<path class="st4" d="M62.4,136.9c10,12.1,17.8,26,23.1,40.8c6.5,18.3,9.7,37.5,9.5,56.9"/>
	<path class="st4" d="M74.8,130.6c10.1,13.1,17.9,27.8,23.1,43.5c6.5,19.5,9.7,39.9,9.5,60.5"/>
	<line class="st4" x1="84.4" y1="144.8" x2="61.1" y2="160.2"/>
	<line class="st4" x1="96.2" y1="169" x2="72.8" y2="184.4"/>
	<line class="st4" x1="93.4" y1="158" x2="70" y2="173.4"/>
	<line class="st4" x1="105.7" y1="195.7" x2="82.4" y2="211.2"/>
	<line class="st4" x1="100.3" y1="180" x2="76.9" y2="195.4"/>
	<line class="st4" x1="103" y1="187.8" x2="79.6" y2="203.3"/>
	<path class="st5" d="M247.1,378.1c-13.2-4.1-33.8-12.2-52.2-28c-21.7-18.7-29.8-39.2-33-50.7"/>
	<path class="st5" d="M229.6,395.6c-19.8-7.4-37.9-18.7-53.3-33.3c-16.6-15.9-28.6-35.8-35-57.9"/>
	<path class="st5" d="M210.3,408.9c-20.3-8.3-38.7-20.6-54.1-36.2c-17-17.3-29.5-38.6-36.2-61.9"/>
	<line class="st5" x1="188.9" y1="398.2" x2="224.4" y2="369.2"/>
	<line class="st5" x1="160.7" y1="377.5" x2="196.2" y2="348.4"/>
	<line class="st5" x1="169.1" y1="388.2" x2="204.5" y2="359.2"/>
	<line class="st5" x1="135.4" y1="352.8" x2="170.8" y2="323.8"/>
	<line class="st5" x1="150" y1="367.4" x2="185.5" y2="338.4"/>
	<line class="st5" x1="142.7" y1="360.1" x2="178.2" y2="331.1"/>
	<line class="st5" x1="128.4" y1="337.9" x2="163.9" y2="308.9"/>
	<path class="st5" d="M271.8,356.7c-13.2-4.1-33.8-12.2-52.2-28c-21.7-18.7-29.8-39.2-33.1-50.7"/>
	<path class="st5" d="M254.3,374.3c-19.8-7.4-37.9-18.7-53.3-33.3c-16.6-15.9-28.6-35.9-35-57.9"/>
	<path class="st5" d="M235,387.6c-20.3-8.3-38.7-20.6-54.1-36.2c-17-17.3-29.5-38.6-36.2-61.9"/>
	<line class="st5" x1="213.6" y1="376.9" x2="249.1" y2="347.8"/>
	<line class="st5" x1="185.4" y1="356.1" x2="220.9" y2="327.1"/>
	<line class="st5" x1="193.7" y1="366.9" x2="229.2" y2="337.8"/>
	<line class="st5" x1="160" y1="331.5" x2="195.5" y2="302.5"/>
	<line class="st5" x1="174.7" y1="346.1" x2="210.2" y2="317"/>
	<line class="st5" x1="167.4" y1="338.8" x2="202.8" y2="309.7"/>
</g>
</svg>
