<svg id="Layer_1" data-name="Layer 1" xmlns="http://www.w3.org/2000/svg" viewBox="0 0 100 100"><defs><style>.cls-1{fill:#09096c;}</style></defs><title>Artboard 11</title><path class="cls-1" d="M1.2,27.76,17.14,48.44,42.37,81.18l5.83,7.58a1.58,1.58,0,0,0,2.06.54,1.53,1.53,0,0,0,.54-2.06L34.86,66.56,9.63,33.82,3.8,26.24a1.58,1.58,0,0,0-2.06-.54,1.53,1.53,0,0,0-.54,2.06Z"/><path class="cls-1" d="M95.45,27l-16,20.37L54.21,79.59l-5.77,7.35c-1.18,1.5.93,3.64,2.12,2.12l16-20.37L91.81,36.51l5.77-7.35c1.17-1.5-.93-3.64-2.13-2.12Z"/></svg>
