<svg id="Layer_1" data-name="Layer 1" xmlns="http://www.w3.org/2000/svg" viewBox="0 0 500 500"><defs><style>.cls-1{fill:#ef9ea0;}.cls-2{fill:#fff5dc;}.cls-3{fill:#c6c6c6;stroke-width:0.75px;opacity:0.23;}.cls-3,.cls-6{stroke:#000503;stroke-miterlimit:10;}.cls-4{fill:#09096c;}.cls-5{fill:#7fc7e1;}.cls-6{fill:none;}.cls-7{fill:#000503;}</style></defs><title>Artboard 2 copy</title><circle class="cls-1" cx="249.5" cy="250" r="145.5"/><path class="cls-2" d="M176,140.5a9.25,9.25,0,0,1,6-3H316.44c1.05.12,6.58.84,9.56,4a12.86,12.86,0,0,1,1.36,1.76A11.26,11.26,0,0,1,329,148.5q-.83,102.6-1.64,205.2a10.67,10.67,0,0,1-2.18,6.9,9.61,9.61,0,0,1-5.46,3.45H189.19a15,15,0,0,1-10.92-4,16.1,16.1,0,0,1-4.37-7.48V151.89a17.66,17.66,0,0,1,.1-6.39A10.22,10.22,0,0,1,176,140.5Z"/><ellipse class="cls-3" cx="250.36" cy="241.01" rx="55.16" ry="58.07"/><ellipse class="cls-4" cx="250.18" cy="241.47" rx="36.57" ry="38.51"/><ellipse class="cls-5" cx="272.05" cy="255" rx="10.02" ry="10.55"/><ellipse class="cls-5" cx="262.37" cy="252.51" rx="7.65" ry="8.05"/><ellipse class="cls-5" cx="265.65" cy="260.56" rx="7.65" ry="8.05"/><ellipse class="cls-5" cx="251.69" cy="257.95" rx="7.18" ry="7.78"/><ellipse class="cls-5" cx="247.67" cy="225.71" rx="10.02" ry="10.55"/><ellipse class="cls-5" cx="225.78" cy="231.16" rx="5.31" ry="5.68"/><ellipse class="cls-5" cx="231.28" cy="234.58" rx="5.31" ry="5.68"/><ellipse class="cls-5" cx="282.78" cy="268.32" rx="7.18" ry="7.78"/><ellipse class="cls-5" cx="282.53" cy="278.91" rx="5.31" ry="5.68"/><ellipse class="cls-5" cx="289.38" cy="283.77" rx="3.96" ry="4.24"/><ellipse class="cls-5" cx="282.72" cy="284.53" rx="7.18" ry="7.78"/><ellipse class="cls-5" cx="289.32" cy="299.98" rx="3.96" ry="4.24"/><ellipse class="cls-5" cx="285.97" cy="297.89" rx="7.68" ry="7.28" transform="matrix(0.28, -0.96, 0.96, 0.28, -79.64, 489.85)"/><ellipse class="cls-5" cx="293.29" cy="282.81" rx="4.2" ry="4" transform="translate(-33.16 526.6) rotate(-80.71)"/><path class="cls-6" d="M173.9,185.23l47.24-.28,10.92-4.6a42,42,0,0,1,18-3.45c7.16.25,12.67,2.38,16.93,4a69.4,69.4,0,0,1,10.11,4.89h50.24"/><path class="cls-7" d="M279.58,155.62a2.29,2.29,0,0,1,.27-.86c.63-1.17,2.25-1.68,4.09-1.44H311.8a4.09,4.09,0,0,1,3.55.87,4.36,4.36,0,0,1,1.36,2.58V167.7a4.33,4.33,0,0,1-1.36,2,4.07,4.07,0,0,1-3,.86h-30a3.05,3.05,0,0,1-2.46-.86c-.59-.69-.57-1.57-.55-2.87,0-1.92-.1-3.84,0-5.75C279.36,160,279.45,158.16,279.58,155.62Z"/><line class="cls-6" x1="174.47" y1="145.29" x2="327.36" y2="145.29"/></svg>
