<?xml version="1.0" encoding="utf-8"?>
<!-- Generator: Adobe Illustrator 24.0.2, SVG Export Plug-In . SVG Version: 6.00 Build 0)  -->
<svg version="1.1" id="Layer_1" xmlns="http://www.w3.org/2000/svg" xmlns:xlink="http://www.w3.org/1999/xlink" x="0px" y="0px"
	 viewBox="0 0 500 500" style="enable-background:new 0 0 500 500;" xml:space="preserve">
<style type="text/css">
	.st0{fill:#F4C3CB;}
	.st1{fill:#F7F2EB;}
	.st2{fill:none;stroke:#25282A;stroke-miterlimit:10;}
	.st3{fill:#1717AF;}
	.st4{fill:#FFFFFF;}
	.st5{fill:#25282A;}
	.st6{fill:#C5A689;}
	.st7{fill:none;stroke:#1717AF;stroke-miterlimit:10;}
	.st8{fill:none;stroke:#C5A689;stroke-miterlimit:10;}
	.st9{fill:none;stroke:#F4C3CB;stroke-miterlimit:10;}
	.st10{fill:none;stroke:#F7F2EB;stroke-miterlimit:10;}
	.st11{fill:none;stroke:#FFFFFF;stroke-miterlimit:10;}
</style>
<title>Artboard 2 copy</title>
<g>
	<circle class="st0" cx="249.8" cy="250" r="219.8"/>
	<path class="st1" d="M138.7,84.6c2.3-2.6,5.6-4.2,9.1-4.5h203.1c1.6,0.2,9.9,1.3,14.4,6c0.8,0.8,1.4,1.7,2.1,2.7
		c1.5,2.4,2.3,5.1,2.5,7.9c-0.8,103.3-1.7,206.6-2.5,310c0.1,3.8-1,7.4-3.3,10.4c-2.1,2.6-5,4.5-8.2,5.2H158.7
		c-6.1,0.3-12-1.9-16.5-6c-3.2-3.1-5.5-7-6.6-11.3V101.8c-0.5-3.2-0.5-6.5,0.2-9.7C136,89.4,137.1,86.8,138.7,84.6z"/>
	<ellipse class="st2" cx="251" cy="236.4" rx="83.3" ry="87.7"/>
	<ellipse class="st3" cx="250.8" cy="237.1" rx="55.2" ry="58.2"/>
	<ellipse class="st4" cx="283.8" cy="257.6" rx="15.1" ry="15.9"/>
	<ellipse class="st4" cx="269.2" cy="253.8" rx="11.6" ry="12.2"/>
	<ellipse class="st4" cx="274.1" cy="266" rx="11.6" ry="12.2"/>
	<ellipse class="st4" cx="253.1" cy="262" rx="10.8" ry="11.8"/>
	<ellipse class="st4" cx="247" cy="213.3" rx="15.1" ry="15.9"/>
	<ellipse class="st4" cx="213.9" cy="221.5" rx="8" ry="8.6"/>
	<ellipse class="st4" cx="222.2" cy="226.7" rx="8" ry="8.6"/>
	<ellipse class="st4" cx="300" cy="277.7" rx="10.8" ry="11.8"/>
	<ellipse class="st4" cx="299.6" cy="293.7" rx="8" ry="8.6"/>
	<ellipse class="st4" cx="310" cy="301" rx="6" ry="6.4"/>
	<ellipse class="st4" cx="299.9" cy="302.2" rx="10.8" ry="11.8"/>
	<ellipse class="st4" cx="309.9" cy="325.5" rx="6" ry="6.4"/>
	<ellipse transform="matrix(0.28 -0.96 0.96 0.28 -90.7023 526.2724)" class="st4" cx="305.5" cy="323.6" rx="11.6" ry="11"/>
	<ellipse transform="matrix(0.1614 -0.9869 0.9869 0.1614 -30.7368 562.9507)" class="st4" cx="315.9" cy="299.6" rx="6.3" ry="6"/>
	<path class="st2" d="M135.6,152.2l71.4-0.4c11.3-6.4,25.8-12.2,43.7-12.2c18.9,0,37.7,8.3,45.2,13.4h71.6"/>
	<path class="st3" d="M295.2,107.4c0-0.5,0.2-0.9,0.4-1.3c1-1.8,3.4-2.5,6.2-2.2h42.1c1.9-0.4,3.9,0.1,5.4,1.3
		c1.1,1,1.8,2.4,2.1,3.9v16.5c-0.4,1.2-1.1,2.2-2.1,3c-1.3,1-2.9,1.5-4.5,1.3h-45.3c-1.4,0.1-2.7-0.3-3.7-1.3
		c-0.9-1-0.9-2.4-0.8-4.3c0-2.9-0.2-5.8,0-8.7C294.9,114.1,295,111.3,295.2,107.4z"/>
	<line class="st2" x1="136.4" y1="91.8" x2="367.4" y2="91.8"/>
</g>
<circle class="st5" cx="696" cy="-79.4" r="77.4"/>
<circle class="st3" cx="696" cy="43.3" r="77.4"/>
<circle class="st6" cx="696" cy="166" r="77.4"/>
<circle class="st0" cx="696" cy="288.8" r="77.4"/>
<circle class="st1" cx="696" cy="411.5" r="77.4"/>
<circle class="st4" cx="696" cy="534.2" r="77.4"/>
<circle class="st2" cx="878.8" cy="-79.4" r="77.4"/>
<circle class="st7" cx="878.8" cy="43.3" r="77.4"/>
<circle class="st8" cx="878.8" cy="166" r="77.4"/>
<circle class="st9" cx="878.8" cy="288.8" r="77.4"/>
<circle class="st10" cx="878.8" cy="411.5" r="77.4"/>
<circle class="st11" cx="878.8" cy="534.2" r="77.4"/>
</svg>
